<svg id="Capa_1" data-name="Capa 1" xmlns="http://www.w3.org/2000/svg" viewBox="0 0 554.57 181.3"><defs><style>.cls-1,.cls-2{fill:red;}.cls-1{fill-rule:evenodd;}</style></defs><path class="cls-1" d="M51.16,51.08l-.42-.43C48.31,48.4,46.63,47.08,40,48.83S22.37,60.12,19.76,69.26C17,78.83,21.87,85.66,31.16,84,36,83.19,41,80.23,45,76.16c7.5-7.54,19.18-10.4,26.08-5,3.18,2.64,8,3.79,13.68,2.82,12.75-2.22,24.51-14.15,25.4-25.29S98.64,32.86,90,35.11s-10.93,4.75-15,8.82h0v0c-.39.36-.75.75-1.14,1.18-8.79,9-17.62,10.64-22.62,5.93Z"/><path class="cls-1" d="M14.49,146.48C5.23,146.41.7,137,3.73,126c2.9-10.5,11.9-19.43,20.65-20.47,9.22-1.11,15.36,6.54,13,18.4s-13,22.61-22.86,22.58Z"/><path class="cls-1" d="M55.86,139.87c-.18.43-.35.82-.5,1.21C52.69,147.69,50.83,151.27,54,162s19.47,21.16,33.8,13c14.82-8.29,21-27.72,14.14-41.8a21.63,21.63,0,0,0-14.79-11.93C76.47,118.9,70.8,107.22,74.9,95c1.9-5.29,2-10.61-.1-14.86-4.18-8.5-15.72-9.22-25.58-2.39S34.43,99,36.5,105.93s4.9,7.9,9.43,8.93h0c.43.11.89.18,1.35.25C58,117.36,61,127.29,55.86,139.87Z"/><path class="cls-1" d="M184.46,88.76c10.68,12.29,6.29,31.12-10.25,40.51-16,9.11-35.26,4.68-42.76-8.47-6.9-11.93-1.82-27.4,11.46-35.83s31.9-7.32,41.55,3.79Z"/><path class="cls-1" d="M143.79,55.12c.43-.18.9-.32,1.32-.5,22.69-9.34,20.54-22.88,19.32-27.4A15.2,15.2,0,0,0,151.26,15.9c-12.22-1.72-27,5.18-33.94,15.46-3.5,5.22-4.54,10.51-3.36,14.94,2.25,8.53-5.43,21.18-17.89,26.9A34.2,34.2,0,0,0,82,85.06c-7.75,11.5-6.68,25.25,4.29,31.54s30.8-2.29,37.23-12.46,5.32-13.87,3.68-19.8h0l0,0a8,8,0,0,0-.5-1.61c-3.5-12.11,3.68-22.26,17.11-27.58Z"/><path class="cls-1" d="M65.72,16.9c6.1-8.57,17.5-14.54,25.93-13.4,9,1.25,11.47,10,4.79,19.72S76.47,39,68.29,36.69,59.46,25.58,65.72,16.9Z"/><path class="cls-2" d="M220,52.84h43.28L287,29.38h50.89V140.67H306.38V56.49H294.65v84.18H263.26V80H251.53v60.72H220Z"/><path class="cls-2" d="M349,29.38h31.39V53.63H349Zm31.39,111.29H349V65.36h31.39Z"/><path class="cls-2" d="M391.51,29.38H442.4l23.78,23.46v87.83H434.79V56.49H423.06v84.18H391.51Z"/><path class="cls-2" d="M551.78,117.2,528,140.67H477.11V29.38H528L551.78,66Zm-31.39-3.64V56.49H508.5v57.07Z"/></svg>